<svg  viewBox="0 0 203 127" fill="none" xmlns="http://www.w3.org/2000/svg">
<path fill-rule="evenodd" clip-rule="evenodd" d="M66.5503 8.25879L133.121 0.270386L123.137 27.5732L79.9409 26.7487L66.5503 8.25879ZM62.6709 10.177L62.8665 45.6066L66.7357 49.7347L71.5734 28.5818L76.0622 28.6669L62.6709 10.177ZM27.9236 20.2097L0.45813 28.3542L26.8679 34.0284L27.9236 20.2097ZM43.1326 29.6693L32.655 20.2097L29.7073 63.6352L48.016 61.8805L43.1326 29.6693ZM53.2456 61.2406L60.1839 60.579L62.1311 51.0274L58.2626 46.8993L51.2145 47.8526L53.2456 61.2406ZM48.11 88.3766L30.9859 66.8188L56.2329 64.4018L101.409 99.0069L48.11 88.3766ZM51.5628 93.7462L104.862 104.377L82.3414 113.661L51.5628 93.7462ZM72.852 33.6973L66.0671 64.4018L111.244 99.0069L117.356 84.7984L72.852 33.6973ZM77.3721 31.1398L175.785 33.0124L121.874 82.241L77.3721 31.1398ZM111.385 106.154L88.8639 115.438L202.542 127L111.385 106.154Z" fill="#E65100"/>
</svg>
